<svg width="13" height="13" viewBox="0 0 13 13" fill="none" xmlns="http://www.w3.org/2000/svg">
<path d="M9.6732 6.47252H3.29069C3.27145 6.47252 3.25149 6.46468 3.23512 6.44832C3.21875 6.43195 3.21091 6.41198 3.21091 6.39274C3.21091 6.3735 3.21875 6.35354 3.23512 6.33717C3.25149 6.3208 3.27145 6.31296 3.29069 6.31296H9.6732C9.69244 6.31296 9.71241 6.3208 9.72878 6.33717C9.74514 6.35354 9.75298 6.3735 9.75298 6.39274C9.75298 6.41198 9.74514 6.43195 9.72878 6.44832C9.71241 6.46468 9.69244 6.47252 9.6732 6.47252Z" fill="#292D32" stroke="#2F2F2F" stroke-width="0.638251"/>
<path d="M6.48191 9.66381C6.46267 9.66381 6.44271 9.65597 6.42634 9.6396C6.40997 9.62324 6.40213 9.60327 6.40213 9.58403V3.20152C6.40213 3.18228 6.40997 3.16231 6.42634 3.14595C6.44271 3.12958 6.46267 3.12174 6.48191 3.12174C6.50116 3.12174 6.52112 3.12958 6.53749 3.14595C6.55386 3.16231 6.5617 3.18228 6.5617 3.20152V9.58403C6.5617 9.60327 6.55386 9.62324 6.53749 9.6396C6.52112 9.65597 6.50116 9.66381 6.48191 9.66381Z" fill="#292D32" stroke="#2F2F2F" stroke-width="0.638251"/>
</svg>
