<svg width="14" height="13" viewBox="0 0 14 13" fill="none" xmlns="http://www.w3.org/2000/svg">
<path d="M7.3409 12.1105C4.18687 12.1105 1.62323 9.54686 1.62323 6.39284C1.62323 3.23881 4.18687 0.675171 7.3409 0.675171C7.55896 0.675171 7.7398 0.856009 7.7398 1.07408C7.7398 1.29215 7.55896 1.47298 7.3409 1.47298C4.62833 1.47298 2.42104 3.68027 2.42104 6.39284C2.42104 9.1054 4.62833 11.3127 7.3409 11.3127C10.0535 11.3127 12.2607 9.1054 12.2607 6.39284C12.2607 6.17477 12.4416 5.99393 12.6597 5.99393C12.8777 5.99393 13.0586 6.17477 13.0586 6.39284C13.0586 9.54686 10.4949 12.1105 7.3409 12.1105Z" fill="#292D32"/>
<path d="M7.87292 6.25979C7.77186 6.25979 7.67081 6.22256 7.59102 6.14278C7.43678 5.98854 7.43678 5.73324 7.59102 5.57899L11.9524 1.21761C12.1067 1.06337 12.362 1.06337 12.5162 1.21761C12.6704 1.37186 12.6704 1.62716 12.5162 1.7814L8.15481 6.14278C8.07503 6.22256 7.97398 6.25979 7.87292 6.25979Z" fill="#292D32"/>
<path d="M12.6596 4.04194C12.4416 4.04194 12.2607 3.86111 12.2607 3.64304V1.47298H10.0907C9.87261 1.47298 9.69177 1.29215 9.69177 1.07408C9.69177 0.856009 9.87261 0.675171 10.0907 0.675171H12.6596C12.8777 0.675171 13.0585 0.856009 13.0585 1.07408V3.64304C13.0585 3.86111 12.8777 4.04194 12.6596 4.04194Z" fill="#292D32"/>
</svg>
